<svg xmlns="http://www.w3.org/2000/svg" viewBox="0 0 1440 320">
  <path fill="#0052a3" fill-opacity="1" d="M0,256L26.7,256C53.3,256,107,256,160,256C213.3,256,267,256,320,240C373.3,224,427,192,480,181.3C533.3,171,587,181,640,181.3C693.3,181,747,171,800,181.3C853.3,192,907,224,960,197.3C1013.3,171,1067,85,1120,69.3C1173.3,53,1227,107,1280,128C1333.3,149,1387,139,1413,133.3L1440,128L1440,320L1413.3,320C1386.7,320,1333,320,1280,320C1226.7,320,1173,320,1120,320C1066.7,320,1013,320,960,320C906.7,320,853,320,800,320C746.7,320,693,320,640,320C586.7,320,533,320,480,320C426.7,320,373,320,320,320C266.7,320,213,320,160,320C106.7,320,53,320,27,320L0,320Z"></path>
</svg>